#!OML:ASF H:\Dans Jumps\Project 1\Capture day 1\Session 1\subject.ASF
:FULLY-SPECIFIED
:DEGREES
406
root 0.554435 16.9154 -2.67242 8.13294 0.227021 -1.78506
lowerback 4.86703 -0.928564 -0.746732
upperback 6.13258 -1.31002 2.26022
thorax 3.67536 -0.740602 2.77429
lowerneck -13.1815 0.743409 -0.597102
upperneck 32.705 1.54648 -0.981754
head 13.1522 0.465021 -0.0506744
rclavicle 2.26615e-014 -9.93923e-015
rhumerus -18.8242 -14.4378 -83.3569
rradius 22.8989
rwrist 32.7925
rhand -21.1037 -25.3387
rfingers 7.12502
rthumb 5.27417 -55.2531
lclavicle 2.26615e-014 -9.93923e-015
lhumerus -13.7405 -7.20642 91.1778
lradius 17.7005
lwrist 6.44988
lhand -27.5709 -5.91951
lfingers 7.12502
lthumb -0.971465 24.058
rfemur -29.18 -4.26575 20.5142
rtibia 45.2933
rfoot -20.6048 -9.3737
rtoes 5.044
lfemur -31.0147 7.5995 -17.8087
ltibia 43.1612
lfoot -19.6167 -0.305586
ltoes -2.061
407
root 0.554899 16.9175 -2.67157 8.13935 0.216483 -1.80036
lowerback 4.85046 -0.925584 -0.738095
upperback 6.13513 -1.30604 2.2608
thorax 3.68688 -0.738401 2.76968
lowerneck -13.1925 0.745879 -0.590135
upperneck 32.7595 1.55638 -1.00311
head 13.1783 0.466837 -0.0587502
rclavicle -9.44227e-015 -5.96354e-016
rhumerus -18.7851 -14.3913 -83.3828
rradius 22.9277
rwrist 32.7401
rhand -21.1037 -25.328
rfingers 7.12502
rthumb 5.27418 -55.2424
lclavicle -9.44227e-015 -5.96354e-016
lhumerus -13.6919 -7.29172 91.1952
lradius 17.7488
lwrist 6.51113
lhand -27.5483 -5.89219
lfingers 7.12502
lthumb -0.949633 24.0854
rfemur -29.1562 -4.26727 20.5286
rtibia 45.2387
rfoot -20.5935 -9.34081
rtoes 5.06733
lfemur -30.9986 7.60825 -17.7944
ltibia 43.1286
lfoot -19.601 -0.323887
ltoes -1.97839
408
root 0.555263 16.9195 -2.67076 8.14508 0.205661 -1.81482
lowerback 4.83551 -0.921816 -0.729715
upperback 6.13692 -1.30101 2.26154
thorax 3.69665 -0.735662 2.7654
lowerneck -13.1819 0.74783 -0.59305
upperneck 32.7962 1.56562 -1.01818
head 13.1919 0.46825 -0.062832
rclavicle 2.08724e-015 -1.05356e-014
rhumerus -18.7454 -14.3613 -83.4034
rradius 22.9493
rwrist 32.711
rhand -21.1154 -25.3056
rfingers 7.12502
rthumb 5.2629 -55.2203
lclavicle 2.08724e-015 -1.05356e-014
lhumerus -13.6476 -7.37507 91.2134
lradius 17.7934
lwrist 6.56841
lhand -27.5299 -5.86856
lfingers 7.12502
lthumb -0.931849 24.1091
rfemur -29.1316 -4.26615 20.5418
rtibia 45.1842
rfoot -20.5818 -9.30993
rtoes 5.09057
lfemur -30.9819 7.61308 -17.7803
ltibia 43.0961
lfoot -19.5845 -0.336521
ltoes -1.89875
409
root 0.555565 16.9215 -2.66994 8.14885 0.19681 -1.82707
lowerback 4.82243 -0.91877 -0.722657
upperback 6.13996 -1.29697 2.26207
thorax 3.70678 -0.733482 2.76169
lowerneck -13.1602 0.750328 -0.602071
upperneck 32.8208 1.57579 -1.02959
head 13.1978 0.469964 -0.0643151
rclavicle 2.88238e-015 9.54166e-015
rhumerus -18.6982 -14.3472 -83.4222
rradius 22.9597
rwrist 32.7011
rhand -21.1372 -25.2821
rfingers 7.12502
rthumb 5.24192 -55.1973
lclavicle 2.88238e-015 9.54166e-015
lhumerus -13.6039 -7.45561 91.2304
lradius 17.8348
lwrist 6.6239
lhand -27.5169 -5.86584
lfingers 7.12502
lthumb -0.919312 24.1119
rfemur -29.1047 -4.26537 20.5522
rtibia 45.1304
rfoot -20.5699 -9.28048
rtoes 5.10555
lfemur -30.9626 7.61219 -17.768
ltibia 43.0623
lfoot -19.566 -0.341984
ltoes -1.83222
410
root 0.555808 16.9236 -2.66912 8.15283 0.187781 -1.83569
lowerback 4.80938 -0.915795 -0.719385
upperback 6.14358 -1.2931 2.26227
thorax 3.7176 -0.731547 2.75975
lowerneck -13.1276 0.752438 -0.62159
upperneck 32.8332 1.5848 -1.03161
head 13.196 0.471275 -0.0605066
rclavicle 1.98785e-015 -2.5842e-015
rhumerus -18.6466 -14.338 -83.4394
rradius 22.9634
rwrist 32.6988
rhand -21.154 -25.2649
rfingers 7.12502
rthumb 5.22565 -55.1804
lclavicle 1.98785e-015 -2.5842e-015
lhumerus -13.5629 -7.53326 91.2476
lradius 17.8755
lwrist 6.67599
lhand -27.5084 -5.85421
lfingers 7.12502
lthumb -0.911111 24.1236
rfemur -29.0782 -4.26374 20.5586
rtibia 45.0771
rfoot -20.5559 -9.25322
rtoes 5.12318
lfemur -30.9428 7.60783 -17.7594
ltibia 43.027
lfoot -19.5459 -0.343591
ltoes -1.77141
411
root 0.556007 16.9259 -2.66823 8.15705 0.177851 -1.84055
lowerback 4.79676 -0.912325 -0.719305
upperback 6.1472 -1.28861 2.26132
thorax 3.72819 -0.7294 2.75843
lowerneck -13.1016 0.755825 -0.635344
upperneck 32.8497 1.59596 -1.03878
head 13.1975 0.473496 -0.0593702
rclavicle 7.7526e-015 1.13307e-014
rhumerus -18.5921 -14.332 -83.4563
rradius 22.9621
rwrist 32.6993
rhand -21.1642 -25.2598
rfingers 7.12502
rthumb 5.21578 -55.1756
lclavicle 7.7526e-015 1.13307e-014
lhumerus -13.5252 -7.60873 91.2643
lradius 17.9167
lwrist 6.72563
lhand -27.5022 -5.84957
lfingers 7.12502
lthumb -0.905166 24.1283
rfemur -29.0528 -4.2636 20.5611
rtibia 45.0253
rfoot -20.5406 -9.22591
rtoes 5.13584
lfemur -30.9219 7.60122 -17.7548
ltibia 42.9901
lfoot -19.5247 -0.342101
ltoes -1.71537
